{
    "asset" : {
        "generator" : "Khronos glTF Blender I/O v1.7.33",
        "version" : "2.0"
    },
    "scene" : 0,
    "scenes" : [
        {
            "name" : "Scene",
            "nodes" : [
                0,
                1,
                2,
                3,
                4,
                5,
                6,
                7,
                8
            ]
        }
    ],
    "nodes" : [
        {
            "mesh" : 0,
            "name" : "Plane -col",
            "scale" : [
                -1.0043160915374756,
                -1.0043160915374756,
                -1.0043160915374756
            ],
            "translation" : [
                1.0107548236846924,
                0,
                -1.0035886764526367
            ]
        },
        {
            "mesh" : 1,
            "name" : "Plane.001 -col",
            "scale" : [
                -1.0043160915374756,
                -1.0043160915374756,
                -1.0043160915374756
            ],
            "translation" : [
                3.0181243419647217,
                0,
                -1.0035886764526367
            ]
        },
        {
            "mesh" : 2,
            "name" : "Plane.002 -col",
            "rotation" : [
                0,
                0,
                -0.7071067690849304,
                0.7071068286895752
            ],
            "scale" : [
                0.9905511736869812,
                0.9905511736869812,
                2.012446641921997
            ],
            "translation" : [
                0,
                0.9747515916824341,
                -0.019362539052963257
            ]
        },
        {
            "mesh" : 3,
            "name" : "Plane.003 -col",
            "rotation" : [
                0,
                0,
                -0.7071067690849304,
                0.7071068286895752
            ],
            "scale" : [
                0.9905511736869812,
                0.9905511736869812,
                2.012446641921997
            ],
            "translation" : [
                4.006138324737549,
                0.9747515916824341,
                -0.019362539052963257
            ]
        },
        {
            "mesh" : 4,
            "name" : "Plane.004 -col",
            "rotation" : [
                -0.5031030774116516,
                0.5031030774116516,
                -0.496877521276474,
                0.4968775510787964
            ],
            "scale" : [
                0.9905511736869812,
                0.9905511736869812,
                2.012446641921997
            ],
            "translation" : [
                2.0122909545898438,
                0.9747515916824341,
                -1.9968217611312866
            ]
        },
        {
            "mesh" : 5,
            "name" : "Plane.005 -col",
            "rotation" : [
                -0.5031030774116516,
                0.5031030774116516,
                -0.496877521276474,
                0.4968775510787964
            ],
            "scale" : [
                0.9905511736869812,
                0.9905511736869812,
                2.012446641921997
            ],
            "translation" : [
                2.0122909545898438,
                0.9747515916824341,
                1.9414149522781372
            ]
        },
        {
            "mesh" : 6,
            "name" : "Plane.006 -col",
            "rotation" : [
                -0.5031030774116516,
                0.5031030774116516,
                -0.496877521276474,
                0.4968775510787964
            ],
            "scale" : [
                0.9905511736869812,
                0.9905511736869812,
                2.012446641921997
            ],
            "translation" : [
                2.0122909545898438,
                0.9747515916824341,
                3.114107608795166
            ]
        },
        {
            "mesh" : 7,
            "name" : "Plane.008 -col",
            "scale" : [
                -1.0043160915374756,
                -1.0043160915374756,
                -1.0043160915374756
            ],
            "translation" : [
                1.0107548236846924,
                0,
                3.008228302001953
            ]
        },
        {
            "mesh" : 8,
            "name" : "Plane.007 -col",
            "scale" : [
                -1.0043160915374756,
                -1.0043160915374756,
                -1.0043160915374756
            ],
            "translation" : [
                3.0181243419647217,
                0,
                3.008228302001953
            ]
        }
    ],
    "materials" : [
        {
            "doubleSided" : true,
            "name" : "rock_001",
            "pbrMetallicRoughness" : {
                "baseColorTexture" : {
                    "index" : 0
                },
                "metallicFactor" : 0,
                "roughnessFactor" : 0.5472440719604492
            }
        },
        {
            "doubleSided" : true,
            "name" : "rock_001.004",
            "pbrMetallicRoughness" : {
                "baseColorTexture" : {
                    "index" : 1
                },
                "metallicFactor" : 0,
                "roughnessFactor" : 0.5472440719604492
            }
        },
        {
            "doubleSided" : true,
            "name" : "brick_grass_wall",
            "pbrMetallicRoughness" : {
                "baseColorTexture" : {
                    "index" : 2
                },
                "metallicFactor" : 0,
                "roughnessFactor" : 0.6811023950576782
            }
        },
        {
            "doubleSided" : true,
            "name" : "brick_grass_wall.002",
            "pbrMetallicRoughness" : {
                "baseColorTexture" : {
                    "index" : 3
                },
                "metallicFactor" : 0,
                "roughnessFactor" : 0.6811023950576782
            }
        },
        {
            "doubleSided" : true,
            "name" : "rock_001.006",
            "pbrMetallicRoughness" : {
                "baseColorTexture" : {
                    "index" : 4
                },
                "metallicFactor" : 0,
                "roughnessFactor" : 0.5472440719604492
            }
        },
        {
            "doubleSided" : true,
            "name" : "rock_001.005",
            "pbrMetallicRoughness" : {
                "baseColorTexture" : {
                    "index" : 5
                },
                "metallicFactor" : 0,
                "roughnessFactor" : 0.5472440719604492
            }
        }
    ],
    "meshes" : [
        {
            "name" : "Plane",
            "primitives" : [
                {
                    "attributes" : {
                        "POSITION" : 0,
                        "NORMAL" : 1,
                        "TEXCOORD_0" : 2
                    },
                    "indices" : 3,
                    "material" : 0
                }
            ]
        },
        {
            "name" : "Plane.004",
            "primitives" : [
                {
                    "attributes" : {
                        "POSITION" : 4,
                        "NORMAL" : 5,
                        "TEXCOORD_0" : 6
                    },
                    "indices" : 3,
                    "material" : 1
                }
            ]
        },
        {
            "name" : "Plane.005",
            "primitives" : [
                {
                    "attributes" : {
                        "POSITION" : 7,
                        "NORMAL" : 8,
                        "TEXCOORD_0" : 9
                    },
                    "indices" : 10,
                    "material" : 2
                }
            ]
        },
        {
            "name" : "Plane.006",
            "primitives" : [
                {
                    "attributes" : {
                        "POSITION" : 11,
                        "NORMAL" : 12,
                        "TEXCOORD_0" : 13
                    },
                    "indices" : 14,
                    "material" : 2
                }
            ]
        },
        {
            "name" : "Plane.007",
            "primitives" : [
                {
                    "attributes" : {
                        "POSITION" : 15,
                        "NORMAL" : 16,
                        "TEXCOORD_0" : 17
                    },
                    "indices" : 10,
                    "material" : 2
                }
            ]
        },
        {
            "name" : "Plane.008",
            "primitives" : [
                {
                    "attributes" : {
                        "POSITION" : 18,
                        "NORMAL" : 19,
                        "TEXCOORD_0" : 20
                    },
                    "indices" : 21,
                    "material" : 2
                }
            ]
        },
        {
            "name" : "Plane.009",
            "primitives" : [
                {
                    "attributes" : {
                        "POSITION" : 22,
                        "NORMAL" : 23,
                        "TEXCOORD_0" : 24
                    },
                    "indices" : 10,
                    "material" : 3
                }
            ]
        },
        {
            "name" : "Plane.011",
            "primitives" : [
                {
                    "attributes" : {
                        "POSITION" : 25,
                        "NORMAL" : 26,
                        "TEXCOORD_0" : 27
                    },
                    "indices" : 28,
                    "material" : 4
                }
            ]
        },
        {
            "name" : "Plane.010",
            "primitives" : [
                {
                    "attributes" : {
                        "POSITION" : 29,
                        "NORMAL" : 30,
                        "TEXCOORD_0" : 31
                    },
                    "indices" : 32,
                    "material" : 5
                }
            ]
        }
    ],
    "textures" : [
        {
            "sampler" : 0,
            "source" : 0
        },
        {
            "sampler" : 0,
            "source" : 0
        },
        {
            "sampler" : 0,
            "source" : 1
        },
        {
            "sampler" : 0,
            "source" : 2
        },
        {
            "sampler" : 0,
            "source" : 0
        },
        {
            "sampler" : 0,
            "source" : 0
        }
    ],
    "images" : [
        {
            "bufferView" : 4,
            "mimeType" : "image/jpeg",
            "name" : "461223101_64px"
        },
        {
            "bufferView" : 12,
            "mimeType" : "image/png",
            "name" : "ground_03_64"
        },
        {
            "bufferView" : 27,
            "mimeType" : "image/png",
            "name" : "ground_03_64"
        }
    ],
    "accessors" : [
        {
            "bufferView" : 0,
            "componentType" : 5126,
            "count" : 18,
            "max" : [
                1,
                0,
                1
            ],
            "min" : [
                -1.0061683654785156,
                -0.0009005870670080185,
                -2.9974470138549805
            ],
            "type" : "VEC3"
        },
        {
            "bufferView" : 1,
            "componentType" : 5126,
            "count" : 18,
            "type" : "VEC3"
        },
        {
            "bufferView" : 2,
            "componentType" : 5126,
            "count" : 18,
            "type" : "VEC2"
        },
        {
            "bufferView" : 3,
            "componentType" : 5123,
            "count" : 48,
            "type" : "SCALAR"
        },
        {
            "bufferView" : 5,
            "componentType" : 5126,
            "count" : 18,
            "max" : [
                1,
                0,
                1
            ],
            "min" : [
                -1.0061683654785156,
                -0.0009005870670080185,
                -2.9974470138549805
            ],
            "type" : "VEC3"
        },
        {
            "bufferView" : 6,
            "componentType" : 5126,
            "count" : 18,
            "type" : "VEC3"
        },
        {
            "bufferView" : 7,
            "componentType" : 5126,
            "count" : 18,
            "type" : "VEC2"
        },
        {
            "bufferView" : 8,
            "componentType" : 5126,
            "count" : 6,
            "max" : [
                1,
                0,
                1
            ],
            "min" : [
                -1,
                0,
                -1
            ],
            "type" : "VEC3"
        },
        {
            "bufferView" : 9,
            "componentType" : 5126,
            "count" : 6,
            "type" : "VEC3"
        },
        {
            "bufferView" : 10,
            "componentType" : 5126,
            "count" : 6,
            "type" : "VEC2"
        },
        {
            "bufferView" : 11,
            "componentType" : 5123,
            "count" : 12,
            "type" : "SCALAR"
        },
        {
            "bufferView" : 13,
            "componentType" : 5126,
            "count" : 10,
            "max" : [
                1,
                0,
                1
            ],
            "min" : [
                -1,
                0,
                -1
            ],
            "type" : "VEC3"
        },
        {
            "bufferView" : 14,
            "componentType" : 5126,
            "count" : 10,
            "type" : "VEC3"
        },
        {
            "bufferView" : 15,
            "componentType" : 5126,
            "count" : 10,
            "type" : "VEC2"
        },
        {
            "bufferView" : 16,
            "componentType" : 5123,
            "count" : 24,
            "type" : "SCALAR"
        },
        {
            "bufferView" : 17,
            "componentType" : 5126,
            "count" : 6,
            "max" : [
                1,
                0,
                1
            ],
            "min" : [
                -1,
                0,
                -1
            ],
            "type" : "VEC3"
        },
        {
            "bufferView" : 18,
            "componentType" : 5126,
            "count" : 6,
            "type" : "VEC3"
        },
        {
            "bufferView" : 19,
            "componentType" : 5126,
            "count" : 6,
            "type" : "VEC2"
        },
        {
            "bufferView" : 20,
            "componentType" : 5126,
            "count" : 72,
            "max" : [
                1,
                0,
                1
            ],
            "min" : [
                -1,
                -1.2195559740066528,
                -1
            ],
            "type" : "VEC3"
        },
        {
            "bufferView" : 21,
            "componentType" : 5126,
            "count" : 72,
            "type" : "VEC3"
        },
        {
            "bufferView" : 22,
            "componentType" : 5126,
            "count" : 72,
            "type" : "VEC2"
        },
        {
            "bufferView" : 23,
            "componentType" : 5123,
            "count" : 132,
            "type" : "SCALAR"
        },
        {
            "bufferView" : 24,
            "componentType" : 5126,
            "count" : 6,
            "max" : [
                1,
                0,
                1
            ],
            "min" : [
                -1,
                0,
                -1
            ],
            "type" : "VEC3"
        },
        {
            "bufferView" : 25,
            "componentType" : 5126,
            "count" : 6,
            "type" : "VEC3"
        },
        {
            "bufferView" : 26,
            "componentType" : 5126,
            "count" : 6,
            "type" : "VEC2"
        },
        {
            "bufferView" : 28,
            "componentType" : 5126,
            "count" : 12,
            "max" : [
                1,
                0,
                1
            ],
            "min" : [
                -1,
                0,
                -0.22597052156925201
            ],
            "type" : "VEC3"
        },
        {
            "bufferView" : 29,
            "componentType" : 5126,
            "count" : 12,
            "type" : "VEC3"
        },
        {
            "bufferView" : 30,
            "componentType" : 5126,
            "count" : 12,
            "type" : "VEC2"
        },
        {
            "bufferView" : 31,
            "componentType" : 5123,
            "count" : 24,
            "type" : "SCALAR"
        },
        {
            "bufferView" : 32,
            "componentType" : 5126,
            "count" : 9,
            "max" : [
                1,
                0,
                1
            ],
            "min" : [
                -1,
                0,
                -0.17102855443954468
            ],
            "type" : "VEC3"
        },
        {
            "bufferView" : 33,
            "componentType" : 5126,
            "count" : 9,
            "type" : "VEC3"
        },
        {
            "bufferView" : 34,
            "componentType" : 5126,
            "count" : 9,
            "type" : "VEC2"
        },
        {
            "bufferView" : 35,
            "componentType" : 5123,
            "count" : 24,
            "type" : "SCALAR"
        }
    ],
    "bufferViews" : [
        {
            "buffer" : 0,
            "byteLength" : 216,
            "byteOffset" : 0
        },
        {
            "buffer" : 0,
            "byteLength" : 216,
            "byteOffset" : 216
        },
        {
            "buffer" : 0,
            "byteLength" : 144,
            "byteOffset" : 432
        },
        {
            "buffer" : 0,
            "byteLength" : 96,
            "byteOffset" : 576
        },
        {
            "buffer" : 0,
            "byteLength" : 1838,
            "byteOffset" : 672
        },
        {
            "buffer" : 0,
            "byteLength" : 216,
            "byteOffset" : 2512
        },
        {
            "buffer" : 0,
            "byteLength" : 216,
            "byteOffset" : 2728
        },
        {
            "buffer" : 0,
            "byteLength" : 144,
            "byteOffset" : 2944
        },
        {
            "buffer" : 0,
            "byteLength" : 72,
            "byteOffset" : 3088
        },
        {
            "buffer" : 0,
            "byteLength" : 72,
            "byteOffset" : 3160
        },
        {
            "buffer" : 0,
            "byteLength" : 48,
            "byteOffset" : 3232
        },
        {
            "buffer" : 0,
            "byteLength" : 24,
            "byteOffset" : 3280
        },
        {
            "buffer" : 0,
            "byteLength" : 9861,
            "byteOffset" : 3304
        },
        {
            "buffer" : 0,
            "byteLength" : 120,
            "byteOffset" : 13168
        },
        {
            "buffer" : 0,
            "byteLength" : 120,
            "byteOffset" : 13288
        },
        {
            "buffer" : 0,
            "byteLength" : 80,
            "byteOffset" : 13408
        },
        {
            "buffer" : 0,
            "byteLength" : 48,
            "byteOffset" : 13488
        },
        {
            "buffer" : 0,
            "byteLength" : 72,
            "byteOffset" : 13536
        },
        {
            "buffer" : 0,
            "byteLength" : 72,
            "byteOffset" : 13608
        },
        {
            "buffer" : 0,
            "byteLength" : 48,
            "byteOffset" : 13680
        },
        {
            "buffer" : 0,
            "byteLength" : 864,
            "byteOffset" : 13728
        },
        {
            "buffer" : 0,
            "byteLength" : 864,
            "byteOffset" : 14592
        },
        {
            "buffer" : 0,
            "byteLength" : 576,
            "byteOffset" : 15456
        },
        {
            "buffer" : 0,
            "byteLength" : 264,
            "byteOffset" : 16032
        },
        {
            "buffer" : 0,
            "byteLength" : 72,
            "byteOffset" : 16296
        },
        {
            "buffer" : 0,
            "byteLength" : 72,
            "byteOffset" : 16368
        },
        {
            "buffer" : 0,
            "byteLength" : 48,
            "byteOffset" : 16440
        },
        {
            "buffer" : 0,
            "byteLength" : 9797,
            "byteOffset" : 16488
        },
        {
            "buffer" : 0,
            "byteLength" : 144,
            "byteOffset" : 26288
        },
        {
            "buffer" : 0,
            "byteLength" : 144,
            "byteOffset" : 26432
        },
        {
            "buffer" : 0,
            "byteLength" : 96,
            "byteOffset" : 26576
        },
        {
            "buffer" : 0,
            "byteLength" : 48,
            "byteOffset" : 26672
        },
        {
            "buffer" : 0,
            "byteLength" : 108,
            "byteOffset" : 26720
        },
        {
            "buffer" : 0,
            "byteLength" : 108,
            "byteOffset" : 26828
        },
        {
            "buffer" : 0,
            "byteLength" : 72,
            "byteOffset" : 26936
        },
        {
            "buffer" : 0,
            "byteLength" : 48,
            "byteOffset" : 27008
        }
    ],
    "samplers" : [
        {
            "magFilter" : 9729,
            "minFilter" : 9987
        }
    ],
    "buffers" : [
        {
            "byteLength" : 27056,
            "uri" : "data:application/octet-stream;base64,"
        }
    ]
}
